<svg width="21" height="22" viewBox="0 0 21 22" fill="none" xmlns="http://www.w3.org/2000/svg">
<path fill-rule="evenodd" clip-rule="evenodd" d="M10.5001 0.515625C4.8377 0.515625 0.246094 5.32499 0.246094 11.2579C0.246094 16.0041 3.18417 20.0308 7.2584 21.4512C7.77086 21.5507 7.959 21.2182 7.959 20.9345C7.959 20.6783 7.94949 19.8321 7.94508 18.9345C5.09241 19.5843 4.49046 17.667 4.49046 17.667C4.02401 16.4254 3.35194 16.0952 3.35194 16.0952C2.42159 15.4285 3.42207 15.4422 3.42207 15.4422C4.45174 15.518 4.99392 16.5492 4.99392 16.5492C5.90847 18.1914 7.39271 17.7166 7.97785 17.4422C8.06988 16.7479 8.33562 16.274 8.62887 16.0057C6.35132 15.7341 3.95711 14.813 3.95711 10.6968C3.95711 9.52403 4.35767 8.56575 5.01362 7.81346C4.90715 7.5429 4.55617 6.45031 5.11295 4.97064C5.11295 4.97064 5.97402 4.68193 7.93353 6.07177C8.75147 5.83375 9.62866 5.71439 10.5001 5.7103C11.3715 5.71439 12.2494 5.83375 13.0688 6.07177C15.026 4.68193 15.8859 4.97064 15.8859 4.97064C16.444 6.45031 16.0928 7.5429 15.9864 7.81346C16.6439 8.56575 17.0417 9.52403 17.0417 10.6968C17.0417 14.8228 14.6429 15.7312 12.3596 15.9972C12.7274 16.3305 13.0551 16.9843 13.0551 17.9865C13.0551 19.4238 13.0432 20.5806 13.0432 20.9345C13.0432 21.2203 13.2278 21.5553 13.7475 21.4498C17.8196 20.0278 20.7539 16.0025 20.7539 11.2579C20.7539 5.32499 16.163 0.515625 10.5001 0.515625ZM4.08655 15.8182C4.06396 15.8716 3.98382 15.8876 3.9108 15.851C3.83643 15.8159 3.79466 15.7432 3.81877 15.6896C3.84084 15.6346 3.92116 15.6193 3.99536 15.6562C4.06991 15.6912 4.11236 15.7647 4.08655 15.8182ZM4.59093 16.2897C4.54203 16.3372 4.44643 16.3151 4.38156 16.2401C4.31449 16.1652 4.30193 16.065 4.35151 16.0168C4.40194 15.9693 4.49465 15.9916 4.56189 16.0665C4.62896 16.1422 4.64204 16.2417 4.59093 16.2897ZM4.93695 16.893C4.87413 16.9387 4.7714 16.8958 4.70789 16.8003C4.64507 16.7048 4.64507 16.5902 4.70925 16.5443C4.77293 16.4984 4.87413 16.5397 4.93848 16.6345C5.00114 16.7316 5.00114 16.8462 4.93695 16.893ZM5.52216 17.5916C5.46595 17.6565 5.34624 17.6391 5.25863 17.5505C5.16897 17.4639 5.14401 17.341 5.20038 17.276C5.25727 17.2109 5.37766 17.2292 5.46595 17.3171C5.55493 17.4036 5.5821 17.5274 5.52216 17.5916ZM6.27848 17.8275C6.25368 17.9116 6.13839 17.9498 6.02224 17.9141C5.90627 17.8773 5.83037 17.7787 5.8538 17.6937C5.87791 17.609 5.99372 17.5692 6.11071 17.6074C6.22652 17.6441 6.30259 17.7419 6.27848 17.8275ZM7.1392 17.9275C7.14208 18.0161 7.0436 18.0896 6.92168 18.0912C6.79908 18.094 6.69992 18.0223 6.69856 17.9352C6.69856 17.8457 6.79484 17.7729 6.91744 17.7708C7.03935 17.7683 7.1392 17.8395 7.1392 17.9275ZM7.98476 17.8935C7.99936 17.98 7.91463 18.0688 7.79356 18.0924C7.67453 18.1152 7.56433 18.0618 7.54922 17.9761C7.53445 17.8875 7.62071 17.7987 7.73957 17.7758C7.86081 17.7537 7.96931 17.8057 7.98476 17.8935Z" fill="#C8A352"/>
</svg>
