<svg width="171" height="56" viewBox="0 0 171 56" fill="none" xmlns="http://www.w3.org/2000/svg">
<path d="M52.18 31.78H56.78V34H49.38V20.04H52.18V31.78ZM68.8597 28.22C68.8597 28.62 68.833 28.98 68.7797 29.3H60.6797C60.7464 30.1 61.0264 30.7267 61.5197 31.18C62.013 31.6333 62.6197 31.86 63.3397 31.86C64.3797 31.86 65.1197 31.4133 65.5597 30.52H68.5797C68.2597 31.5867 67.6464 32.4667 66.7397 33.16C65.833 33.84 64.7197 34.18 63.3997 34.18C62.333 34.18 61.373 33.9467 60.5197 33.48C59.6797 33 59.0197 32.3267 58.5397 31.46C58.073 30.5933 57.8397 29.5933 57.8397 28.46C57.8397 27.3133 58.073 26.3067 58.5397 25.44C59.0064 24.5733 59.6597 23.9067 60.4997 23.44C61.3397 22.9733 62.3064 22.74 63.3997 22.74C64.453 22.74 65.393 22.9667 66.2197 23.42C67.0597 23.8733 67.7064 24.52 68.1597 25.36C68.6264 26.1867 68.8597 27.14 68.8597 28.22ZM65.9597 27.42C65.9464 26.7 65.6864 26.1267 65.1797 25.7C64.673 25.26 64.053 25.04 63.3197 25.04C62.6264 25.04 62.0397 25.2533 61.5597 25.68C61.093 26.0933 60.8064 26.6733 60.6997 27.42H65.9597ZM77.0234 34L74.7434 30.56L72.7234 34H69.7234L73.3434 28.44L69.6834 22.92H72.8434L75.1034 26.34L77.1434 22.92H80.1434L76.5034 28.44L80.1834 34H77.0234ZM89.8442 20.04V29.84C89.8442 31.2 89.4509 32.26 88.6642 33.02C87.8776 33.7667 86.8242 34.14 85.5042 34.14C84.1709 34.14 83.0909 33.7533 82.2642 32.98C81.4509 32.2067 81.0442 31.1267 81.0442 29.74H83.8442C83.8576 30.34 83.9976 30.8067 84.2642 31.14C84.5442 31.4733 84.9442 31.64 85.4642 31.64C85.9709 31.64 86.3576 31.48 86.6242 31.16C86.8909 30.84 87.0242 30.4 87.0242 29.84V20.04H89.8442ZM103.57 22.92V34H100.75V32.6C100.39 33.08 99.9171 33.46 99.3305 33.74C98.7571 34.0067 98.1305 34.14 97.4505 34.14C96.5838 34.14 95.8171 33.96 95.1505 33.6C94.4838 33.2267 93.9571 32.6867 93.5705 31.98C93.1971 31.26 93.0105 30.4067 93.0105 29.42V22.92H95.8105V29.02C95.8105 29.9 96.0305 30.58 96.4705 31.06C96.9105 31.5267 97.5105 31.76 98.2705 31.76C99.0438 31.76 99.6505 31.5267 100.09 31.06C100.53 30.58 100.75 29.9 100.75 29.02V22.92H103.57ZM109.133 24.64C109.493 24.0533 109.96 23.5933 110.533 23.26C111.12 22.9267 111.786 22.76 112.533 22.76V25.7H111.793C110.913 25.7 110.246 25.9067 109.793 26.32C109.353 26.7333 109.133 27.4533 109.133 28.48V34H106.333V22.92H109.133V24.64ZM115.839 21.6C115.346 21.6 114.932 21.4467 114.599 21.14C114.279 20.82 114.119 20.4267 114.119 19.96C114.119 19.4933 114.279 19.1067 114.599 18.8C114.932 18.48 115.346 18.32 115.839 18.32C116.332 18.32 116.739 18.48 117.059 18.8C117.392 19.1067 117.559 19.4933 117.559 19.96C117.559 20.4267 117.392 20.82 117.059 21.14C116.739 21.4467 116.332 21.6 115.839 21.6ZM117.219 22.92V34H114.419V22.92H117.219ZM124.225 34.18C123.319 34.18 122.505 34.02 121.785 33.7C121.065 33.3667 120.492 32.92 120.065 32.36C119.652 31.8 119.425 31.18 119.385 30.5H122.205C122.259 30.9267 122.465 31.28 122.825 31.56C123.199 31.84 123.659 31.98 124.205 31.98C124.739 31.98 125.152 31.8733 125.445 31.66C125.752 31.4467 125.905 31.1733 125.905 30.84C125.905 30.48 125.719 30.2133 125.345 30.04C124.985 29.8533 124.405 29.6533 123.605 29.44C122.779 29.24 122.099 29.0333 121.565 28.82C121.045 28.6067 120.592 28.28 120.205 27.84C119.832 27.4 119.645 26.8067 119.645 26.06C119.645 25.4467 119.819 24.8867 120.165 24.38C120.525 23.8733 121.032 23.4733 121.685 23.18C122.352 22.8867 123.132 22.74 124.025 22.74C125.345 22.74 126.399 23.0733 127.185 23.74C127.972 24.3933 128.405 25.28 128.485 26.4H125.805C125.765 25.96 125.579 25.6133 125.245 25.36C124.925 25.0933 124.492 24.96 123.945 24.96C123.439 24.96 123.045 25.0533 122.765 25.24C122.499 25.4267 122.365 25.6867 122.365 26.02C122.365 26.3933 122.552 26.68 122.925 26.88C123.299 27.0667 123.879 27.26 124.665 27.46C125.465 27.66 126.125 27.8667 126.645 28.08C127.165 28.2933 127.612 28.6267 127.985 29.08C128.372 29.52 128.572 30.1067 128.585 30.84C128.585 31.48 128.405 32.0533 128.045 32.56C127.699 33.0667 127.192 33.4667 126.525 33.76C125.872 34.04 125.105 34.18 124.225 34.18Z" fill="#0F2247"/>
<path d="M20.6166 3.58338L35.6166 9.58334C36.2 9.81667 36.6666 10.5167 36.6666 11.1333V16.6667C36.6666 17.5833 35.9166 18.3333 35 18.3333H4.99998C4.08331 18.3333 3.33331 17.5833 3.33331 16.6667V11.1333C3.33331 10.5167 3.79999 9.81667 4.38332 9.58334L19.3833 3.58338C19.7167 3.45005 20.2833 3.45005 20.6166 3.58338Z" stroke="#C8A352" stroke-width="1.5" stroke-miterlimit="10" stroke-linecap="round" stroke-linejoin="round"/>
<path d="M36.6666 36.6667H3.33331V31.6667C3.33331 30.75 4.08331 30 4.99998 30H35C35.9166 30 36.6666 30.75 36.6666 31.6667V36.6667Z" stroke="#C8A352" stroke-width="1.5" stroke-miterlimit="10" stroke-linecap="round" stroke-linejoin="round"/>
<path d="M6.66669 30V18.3333" stroke="#C8A352" stroke-width="1.5" stroke-miterlimit="10" stroke-linecap="round" stroke-linejoin="round"/>
<path d="M13.3333 30V18.3333" stroke="#C8A352" stroke-width="1.5" stroke-miterlimit="10" stroke-linecap="round" stroke-linejoin="round"/>
<path d="M20 30V18.3333" stroke="#C8A352" stroke-width="1.5" stroke-miterlimit="10" stroke-linecap="round" stroke-linejoin="round"/>
<path d="M26.6667 30V18.3333" stroke="#C8A352" stroke-width="1.5" stroke-miterlimit="10" stroke-linecap="round" stroke-linejoin="round"/>
<path d="M33.3333 30V18.3333" stroke="#C8A352" stroke-width="1.5" stroke-miterlimit="10" stroke-linecap="round" stroke-linejoin="round"/>
<path d="M1.66669 36.6667H38.3334" stroke="#C8A352" stroke-width="1.5" stroke-miterlimit="10" stroke-linecap="round" stroke-linejoin="round"/>
<path d="M20 14.1667C21.3807 14.1667 22.5 13.0474 22.5 11.6667C22.5 10.286 21.3807 9.16667 20 9.16667C18.6193 9.16667 17.5 10.286 17.5 11.6667C17.5 13.0474 18.6193 14.1667 20 14.1667Z" stroke="#C8A352" stroke-width="1.5" stroke-miterlimit="10" stroke-linecap="round" stroke-linejoin="round"/>
</svg>
